<?xml version="1.0" encoding="UTF-8" standalone="no"?>
<!DOCTYPE svg PUBLIC "-//W3C//DTD SVG 1.1//EN" "http://www.w3.org/Graphics/SVG/1.1/DTD/svg11.dtd">
<!-- Created with Vectornator (http://vectornator.io/) -->
<svg height="100%" stroke-miterlimit="10" style="fill-rule:nonzero;clip-rule:evenodd;stroke-linecap:round;stroke-linejoin:round;" version="1.1" viewBox="0 0 543.111 163.715" width="100%" xml:space="preserve" xmlns="http://www.w3.org/2000/svg" xmlns:vectornator="http://vectornator.io" xmlns:xlink="http://www.w3.org/1999/xlink">
<defs/>
<g id="Layer-1" vectornator:layerName="Layer 1">
<path d="M57.4273 88.9327C54.2756 82.5385 41.7767 81.5355 36.8745 86.5084C29.3502 94.1412 21.0501 109.193 26.8371 120.934C27.8286 122.945 30.1867 123.845 32.0948 124.813C41.6632 129.666 47.539 122.025 52.6476 115.115C55.6835 111.009 58.1727 104.818 59.3392 100.085C59.9111 97.7642 60.2951 95.2821 60.2951 92.8117C60.2951 92.3268 59.8172 91.3571 60.2951 91.3571C61.1313 91.3571 60.7731 99.5495 60.7731 100.085C60.7731 106.041 61.0844 111.846 62.207 117.54C63.7662 125.448 87.733 125.519 91.2213 118.442M88.3708 120.877C95.546 115.309 94.9426 113.58 98.1941 111.366C110.464 103.009 128.619 80.6828 128.619 64.1847C128.619 57.8067 130.056 36.946 119.191 36.946C109.939 36.946 105.819 50.3803 103.765 57.375C98.9355 73.8201 94.7131 95.681 102.051 112.339C105.324 119.77 110.216 128.579 119.62 126.444C127.436 124.67 129.316 123.965 135.475 120.47M135.475 121.103C148.258 113.308 179.954 78.705 181.537 66.0379C182.421 58.966 182.919 36.946 170.87 36.946C146.569 36.946 135.898 121.858 166.021 126.161C177.856 127.852 181.582 121.141 190.071 116.896M190.071 116.946C198.163 110.54 202.822 106.977 209.684 100.874C209.684 100.874 211.804 99.5684 214.233 96.3919C216.662 93.2155 218.242 89.7136 219.401 88.1685C219.599 87.9036 216.385 94.8198 220.39 85.9543C220.761 85.1332 220.289 89.0451 220.289 89.9461C220.289 94.216 218.512 98.2078 218.512 102.389C218.512 110.647 217.251 126.374 230.511 124.164C235.059 123.406 237.971 122.582 241.507 120.814M225.622 53.9502C221.715 59.9637 227.889 54.8235 226.414 53.7393M241.507 120.86C245.074 118.954 251.458 113.793 254.517 111.341C262.598 104.862 267.9 97.0711 274.95 89.5356C277.451 86.8623 284.59 75.9799 287.837 75.2857C289.738 74.8794 298.021 89.4347 298.947 91.9106C301.448 98.5924 306.493 107.15 304.724 114.711C301.439 128.756 281.911 128.77 271.839 122.311C268.166 119.955 262.339 115.006 259.396 111.861M305.092 124.263C308.779 126.107 317.447 125.47 320.956 123.966C328.317 120.811 331.937 113.681 336.363 107.485C339.506 103.084 342.833 98.6576 346.395 94.5863C351.138 89.1654 358.001 85.5585 364.31 82.4044C365.946 81.5861 369.391 81.9042 371.161 81.8577C377.637 81.6873 365.449 82.172 363.235 83.121C357.198 85.7082 352.812 91.6757 350.336 97.4527C347.756 103.474 347.157 114.4 352.844 118.95C356.341 121.748 362.052 123.59 366.459 124.325C369.886 124.896 374.068 125.134 377.208 123.25C383.595 119.418 393.244 108.567 391.181 100.319C389.129 92.1103 386.724 85.8418 376.928 81.8577M391.465 120.201C420.387 130.075 416.24 104.612 425.661 89.7647C430.786 81.6873 433.251 77.7343 439.54 78.9921C447.304 80.5449 445.576 103.347 445.576 109.173C445.576 110.195 444.698 119.777 447.085 118.982C448.866 118.388 451.416 109.845 452.367 108.418C458.961 98.5274 472.887 78.8361 485.472 81.6873C503.809 85.8418 493.026 109.586 494.62 115.964C495.741 120.445 502.257 126.85 506.268 124.375C511.733 121.004 515.487 115.753 517.87 113.37" fill="none" opacity="0.989635" stroke="#FFFFFF" stroke-linecap="round" stroke-linejoin="miter" stroke-width="18.715" vectornator:layerName="Curve 1"/>
</g>
</svg>
